<mxfile host="app.diagrams.net" modified="2024-03-11T13:06:30.416Z" agent="Mozilla/5.0 (Macintosh; Intel Mac OS X 10_15_7) AppleWebKit/605.1.15 (KHTML, like Gecko) Version/16.5 Safari/605.1.15" version="24.0.4" etag="1XKsz4zxpZet1UT1aE8m" type="github">
  <diagram name="Page-1" id="bbtWTI2plTpYBy7Y_lGl">
    <mxGraphModel>
      <root>
        <mxCell id="0" />
        <mxCell id="1" parent="0" />
      </root>
    </mxGraphModel>
  </diagram>
</mxfile>
